<mxfile host="app.diagrams.net" agent="Mozilla/5.0 (Windows NT 10.0; Win64; x64) AppleWebKit/537.36 (KHTML, like Gecko) Chrome/131.0.0.0 Safari/537.36 Edg/131.0.0.0" version="26.0.3">
  <diagram name="第 1 页" id="Mpc1YeDRjPd2F55AHiOZ">
    <mxGraphModel dx="1323" dy="1177" grid="0" gridSize="10" guides="1" tooltips="1" connect="1" arrows="1" fold="1" page="0" pageScale="1" pageWidth="827" pageHeight="1169" math="0" shadow="0">
      <root>
        <mxCell id="0" />
        <mxCell id="1" parent="0" />
        <mxCell id="m3UVJYN49WAhVFE6fmJY-3" style="edgeStyle=orthogonalEdgeStyle;rounded=0;orthogonalLoop=1;jettySize=auto;html=1;fillColor=#f8cecc;strokeColor=#b85450;" edge="1" parent="1" source="m3UVJYN49WAhVFE6fmJY-1" target="m3UVJYN49WAhVFE6fmJY-2">
          <mxGeometry relative="1" as="geometry" />
        </mxCell>
        <mxCell id="m3UVJYN49WAhVFE6fmJY-1" value="PosteriorEncoder" style="rounded=1;whiteSpace=wrap;html=1;fillColor=#60A917;fontFamily=Comic Sans MS;strokeColor=#60A917;gradientColor=none;" vertex="1" parent="1">
          <mxGeometry x="5" y="210.5" width="120" height="60" as="geometry" />
        </mxCell>
        <mxCell id="m3UVJYN49WAhVFE6fmJY-2" value="" style="whiteSpace=wrap;html=1;aspect=fixed;" vertex="1" parent="1">
          <mxGeometry x="286" y="-149" width="779" height="779" as="geometry" />
        </mxCell>
        <mxCell id="m3UVJYN49WAhVFE6fmJY-4" value="&lt;div&gt;&lt;span style=&quot;background-color: rgb(96, 169, 23); color: rgb(26, 26, 26); font-size: 13.0667px;&quot;&gt;Conv1d&amp;nbsp; (conv_pre）&amp;nbsp;&lt;/span&gt;&lt;/div&gt;" style="rounded=1;whiteSpace=wrap;html=1;fontColor=default;fillColor=#60A917;strokeColor=#60A917;fontFamily=Comic Sans MS;" vertex="1" parent="1">
          <mxGeometry x="570" y="524" width="148" height="78" as="geometry" />
        </mxCell>
      </root>
    </mxGraphModel>
  </diagram>
</mxfile>
